<svg width="18" height="18" viewBox="0 0 18 18" fill="none" xmlns="http://www.w3.org/2000/svg">
<g clip-path="url(#clip0_1028_222)">
<path d="M8.94394 0.5625C5.28769 0.5625 2.16582 2.925 1.0127 6.1875H16.9314C15.7502 2.925 12.6283 0.5625 8.94394 0.5625Z" fill="#F2B200"/>
<path d="M8.94394 17.4375C12.6283 17.4375 15.7502 15.1031 16.9033 11.8125H1.0127C2.16582 15.1031 5.28769 17.4375 8.94394 17.4375Z" fill="#83BF4F"/>
<path d="M1.0123 6.1875C0.70293 7.05937 0.53418 8.01562 0.53418 9C0.53418 9.98438 0.70293 10.9406 1.0123 11.8125H16.9311C17.2404 10.9406 17.4092 9.98438 17.4092 9C17.4092 8.01562 17.2404 7.05937 16.9311 6.1875H1.0123Z" fill="white"/>
<path d="M8.94385 11.25C10.1865 11.25 11.1938 10.2426 11.1938 9C11.1938 7.75736 10.1865 6.75 8.94385 6.75C7.70121 6.75 6.69385 7.75736 6.69385 9C6.69385 10.2426 7.70121 11.25 8.94385 11.25Z" fill="#428BC1"/>
<path d="M8.94385 10.9688C10.0312 10.9688 10.9126 10.0873 10.9126 9C10.9126 7.91269 10.0312 7.03125 8.94385 7.03125C7.85654 7.03125 6.9751 7.91269 6.9751 9C6.9751 10.0873 7.85654 10.9688 8.94385 10.9688Z" fill="white"/>
<path d="M8.21231 7.3125C8.28998 7.3125 8.35294 7.24954 8.35294 7.17188C8.35294 7.09421 8.28998 7.03125 8.21231 7.03125C8.13465 7.03125 8.07169 7.09421 8.07169 7.17188C8.07169 7.24954 8.13465 7.3125 8.21231 7.3125Z" fill="#428BC1"/>
<path d="M7.7623 7.56543C7.83996 7.56543 7.90292 7.50247 7.90292 7.4248C7.90292 7.34714 7.83996 7.28418 7.7623 7.28418C7.68463 7.28418 7.62167 7.34714 7.62167 7.4248C7.62167 7.50247 7.68463 7.56543 7.7623 7.56543Z" fill="#428BC1"/>
<path d="M7.39668 7.93115C7.47435 7.93115 7.53731 7.86819 7.53731 7.79053C7.53731 7.71286 7.47435 7.6499 7.39668 7.6499C7.31902 7.6499 7.25606 7.71286 7.25606 7.79053C7.25606 7.86819 7.31902 7.93115 7.39668 7.93115Z" fill="#428BC1"/>
<path d="M7.14355 8.38135C7.22122 8.38135 7.28418 8.31839 7.28418 8.24072C7.28418 8.16306 7.22122 8.1001 7.14355 8.1001C7.06589 8.1001 7.00293 8.16306 7.00293 8.24072C7.00293 8.31839 7.06589 8.38135 7.14355 8.38135Z" fill="#428BC1"/>
<path d="M7.00293 8.8877C7.08059 8.8877 7.14355 8.82474 7.14355 8.74707C7.14355 8.66941 7.08059 8.60645 7.00293 8.60645C6.92526 8.60645 6.8623 8.66941 6.8623 8.74707C6.8623 8.82474 6.92526 8.8877 7.00293 8.8877Z" fill="#428BC1"/>
<path d="M7.00293 9.39355C7.08059 9.39355 7.14355 9.33059 7.14355 9.25293C7.14355 9.17526 7.08059 9.1123 7.00293 9.1123C6.92526 9.1123 6.8623 9.17526 6.8623 9.25293C6.8623 9.33059 6.92526 9.39355 7.00293 9.39355Z" fill="#428BC1"/>
<path d="M7.14355 9.8999C7.22122 9.8999 7.28418 9.83694 7.28418 9.75928C7.28418 9.68161 7.22122 9.61865 7.14355 9.61865C7.06589 9.61865 7.00293 9.68161 7.00293 9.75928C7.00293 9.83694 7.06589 9.8999 7.14355 9.8999Z" fill="#428BC1"/>
<path d="M7.39668 10.3501C7.47435 10.3501 7.53731 10.2871 7.53731 10.2095C7.53731 10.1318 7.47435 10.0688 7.39668 10.0688C7.31902 10.0688 7.25606 10.1318 7.25606 10.2095C7.25606 10.2871 7.31902 10.3501 7.39668 10.3501Z" fill="#428BC1"/>
<path d="M7.7623 10.7158C7.83996 10.7158 7.90292 10.6529 7.90292 10.5752C7.90292 10.4975 7.83996 10.4346 7.7623 10.4346C7.68463 10.4346 7.62167 10.4975 7.62167 10.5752C7.62167 10.6529 7.68463 10.7158 7.7623 10.7158Z" fill="#428BC1"/>
<path d="M8.21231 10.9688C8.28998 10.9688 8.35294 10.9058 8.35294 10.8281C8.35294 10.7505 8.28998 10.6875 8.21231 10.6875C8.13465 10.6875 8.07169 10.7505 8.07169 10.8281C8.07169 10.9058 8.13465 10.9688 8.21231 10.9688Z" fill="#428BC1"/>
<path d="M8.69043 11.0811C8.76809 11.0811 8.83105 11.0181 8.83105 10.9404C8.83105 10.8628 8.76809 10.7998 8.69043 10.7998C8.61276 10.7998 8.5498 10.8628 8.5498 10.9404C8.5498 11.0181 8.61276 11.0811 8.69043 11.0811Z" fill="#428BC1"/>
<path d="M9.08418 10.9686C9.08418 10.8842 9.14043 10.8279 9.19668 10.7998C9.28106 10.7998 9.33731 10.8561 9.36543 10.9123C9.36543 10.9967 9.30918 11.0529 9.25293 11.0811C9.14043 11.1092 9.08418 11.0529 9.08418 10.9686Z" fill="#428BC1"/>
<path d="M9.70293 10.9688C9.78059 10.9688 9.84355 10.9058 9.84355 10.8281C9.84355 10.7505 9.78059 10.6875 9.70293 10.6875C9.62526 10.6875 9.5623 10.7505 9.5623 10.8281C9.5623 10.9058 9.62526 10.9688 9.70293 10.9688Z" fill="#428BC1"/>
<path d="M10.1529 10.7158C10.2306 10.7158 10.2935 10.6529 10.2935 10.5752C10.2935 10.4975 10.2306 10.4346 10.1529 10.4346C10.0753 10.4346 10.0123 10.4975 10.0123 10.5752C10.0123 10.6529 10.0753 10.7158 10.1529 10.7158Z" fill="#428BC1"/>
<path d="M10.5186 10.3501C10.5962 10.3501 10.6592 10.2871 10.6592 10.2095C10.6592 10.1318 10.5962 10.0688 10.5186 10.0688C10.4409 10.0688 10.3779 10.1318 10.3779 10.2095C10.3779 10.2871 10.4409 10.3501 10.5186 10.3501Z" fill="#428BC1"/>
<path d="M10.7717 9.8999C10.8493 9.8999 10.9123 9.83694 10.9123 9.75928C10.9123 9.68161 10.8493 9.61865 10.7717 9.61865C10.694 9.61865 10.6311 9.68161 10.6311 9.75928C10.6311 9.83694 10.694 9.8999 10.7717 9.8999Z" fill="#428BC1"/>
<path d="M10.9123 9.39355C10.99 9.39355 11.0529 9.33059 11.0529 9.25293C11.0529 9.17526 10.99 9.1123 10.9123 9.1123C10.8346 9.1123 10.7717 9.17526 10.7717 9.25293C10.7717 9.33059 10.8346 9.39355 10.9123 9.39355Z" fill="#428BC1"/>
<path d="M10.9123 8.8877C10.8279 8.8877 10.7717 8.83145 10.7436 8.7752C10.7436 8.69082 10.7998 8.63457 10.8561 8.60645C10.9404 8.60645 10.9967 8.6627 11.0248 8.71895C11.0529 8.80332 10.9967 8.85957 10.9123 8.8877Z" fill="#428BC1"/>
<path d="M10.7717 8.38135C10.8493 8.38135 10.9123 8.31839 10.9123 8.24072C10.9123 8.16306 10.8493 8.1001 10.7717 8.1001C10.694 8.1001 10.6311 8.16306 10.6311 8.24072C10.6311 8.31839 10.694 8.38135 10.7717 8.38135Z" fill="#428BC1"/>
<path d="M10.5186 7.93115C10.5962 7.93115 10.6592 7.86819 10.6592 7.79053C10.6592 7.71286 10.5962 7.6499 10.5186 7.6499C10.4409 7.6499 10.3779 7.71286 10.3779 7.79053C10.3779 7.86819 10.4409 7.93115 10.5186 7.93115Z" fill="#428BC1"/>
<path d="M10.1529 7.56543C10.2306 7.56543 10.2935 7.50247 10.2935 7.4248C10.2935 7.34714 10.2306 7.28418 10.1529 7.28418C10.0753 7.28418 10.0123 7.34714 10.0123 7.4248C10.0123 7.50247 10.0753 7.56543 10.1529 7.56543Z" fill="#428BC1"/>
<path d="M9.84355 7.22812C9.81543 7.31249 9.73105 7.34062 9.64668 7.31249C9.5623 7.28437 9.53418 7.19999 9.5623 7.11562C9.59043 7.03124 9.6748 7.00312 9.75918 7.03124C9.84355 7.08749 9.87168 7.17187 9.84355 7.22812ZM9.3373 7.05937C9.3373 7.14374 9.25293 7.19999 9.16855 7.17187C9.08418 7.17187 9.02793 7.08749 9.05605 7.00312C9.05605 6.91874 9.14043 6.86249 9.2248 6.89062C9.30918 6.91874 9.36543 7.00312 9.3373 7.05937ZM8.83105 7.03124C8.83105 7.11562 8.7748 7.17187 8.71855 7.19999C8.63418 7.19999 8.57793 7.14374 8.5498 7.08749C8.5498 7.00312 8.60605 6.94687 8.6623 6.91874C8.74668 6.89062 8.83105 6.94687 8.83105 7.03124Z" fill="#428BC1"/>
<path d="M8.94356 9.42188C9.17655 9.42188 9.36543 9.233 9.36543 9C9.36543 8.767 9.17655 8.57812 8.94356 8.57812C8.71056 8.57812 8.52168 8.767 8.52168 9C8.52168 9.233 8.71056 9.42188 8.94356 9.42188Z" fill="#428BC1"/>
<path d="M8.94355 7.03125L8.8873 8.24062L8.94355 9L9.02793 8.24062L8.94355 7.03125ZM8.4373 7.0875L8.69043 8.29688L8.94355 9L8.83105 8.24062L8.4373 7.0875Z" fill="#428BC1"/>
<path d="M7.95918 7.28418L8.52168 8.38105L8.94355 8.9998L8.63418 8.29668L7.95918 7.28418ZM7.56543 7.59355L8.38105 8.52168L8.94355 8.9998L8.46543 8.40918L7.56543 7.59355Z" fill="#428BC1"/>
<path d="M7.25606 8.01562L8.26856 8.69062L8.94356 9L8.32481 8.55L7.25606 8.01562Z" fill="#428BC1"/>
<path d="M7.05918 8.49365L8.21231 8.85928L8.94356 8.9999L8.24043 8.74678L7.05918 8.49365ZM6.97481 8.9999L8.21231 9.05615L8.94356 8.9999L8.21231 8.94365L6.97481 8.9999Z" fill="#428BC1"/>
<path d="M7.05917 9.50625L8.24042 9.25313L8.94355 9L8.2123 9.14062L7.05917 9.50625ZM7.25605 9.98438L8.3248 9.45L8.94355 9L8.26855 9.30937L7.25605 9.98438Z" fill="#428BC1"/>
<path d="M7.56543 10.3781L8.46543 9.59062L8.94355 9L8.38105 9.47813L7.56543 10.3781ZM7.95918 10.7156L8.63418 9.675L8.94355 9L8.52168 9.61875L7.95918 10.7156Z" fill="#428BC1"/>
<path d="M8.4373 10.9125L8.83105 9.75938L8.94355 9L8.69043 9.70312L8.4373 10.9125ZM8.94355 10.9688L9.02793 9.75938L8.94355 9L8.8873 9.75938L8.94355 10.9688ZM9.4498 10.9125L9.2248 9.70312L8.94355 9L9.08418 9.75938L9.4498 10.9125Z" fill="#428BC1"/>
<path d="M9.92793 10.7156L9.39356 9.61875L8.94356 9L9.28106 9.70313L9.92793 10.7156ZM10.3498 10.3781L9.53418 9.47813L8.94356 9L9.44981 9.59062L10.3498 10.3781Z" fill="#428BC1"/>
<path d="M10.6592 9.98428L9.64668 9.30928L8.94356 8.9999L9.56231 9.4499L10.6592 9.98428ZM10.8561 9.50615L9.70293 9.14053L8.94356 8.9999L9.67481 9.25303L10.8561 9.50615ZM10.9123 8.9999L9.70293 8.91553L8.94356 8.9999L9.70293 9.05615L10.9123 8.9999ZM10.8561 8.49365L9.67481 8.74678L8.94356 8.9999L9.70293 8.85928L10.8561 8.49365Z" fill="#428BC1"/>
<path d="M10.6592 8.01582L9.56231 8.5502L8.94356 9.0002L9.64668 8.69082L10.6592 8.01582ZM10.3498 7.62207L9.44981 8.40957L8.94356 9.0002L9.53418 8.52207L10.3498 7.62207Z" fill="#428BC1"/>
<path d="M9.92793 7.28418L9.28106 8.3248L8.94356 8.9998L9.39356 8.38105L9.92793 7.28418Z" fill="#428BC1"/>
<path d="M9.47793 7.0874L9.08418 8.24053L8.94356 8.9999L9.22481 8.29678L9.47793 7.0874Z" fill="#428BC1"/>
</g>
<defs>
<clipPath id="clip0_1028_222">
<rect width="18" height="18" fill="white"/>
</clipPath>
</defs>
</svg>
