<svg width="47" height="35" viewBox="0 0 47 35" fill="none" xmlns="http://www.w3.org/2000/svg">
<g clip-path="url(#clip0_0_968)">
<path d="M31.2167 18.1814H28.0359V16.5911H31.2167V18.1814ZM31.2167 19.0902H28.0359V20.6806H31.2167V19.0902ZM31.2167 11.5928H28.0359V13.1831H31.2167V11.5928V11.5928ZM31.2167 14.0919H28.0359V15.6823H31.2167V14.0919ZM31.2167 21.5893H28.0359V23.1797H31.2167V21.5893V21.5893ZM33.4136 24.7246C33.3228 25.1972 32.7548 25.2086 32.3754 25.2245H25.3096V27.2692H23.8987L13.5 25.4516V9.55031L23.9601 7.73047H25.3096V9.54121H32.1323C32.5162 9.55711 32.9388 9.52984 33.2728 9.7593C33.5068 10.0955 33.4841 10.5227 33.5 10.9089L33.4909 22.7367C33.4796 23.3978 33.5522 24.0726 33.4136 24.7246ZM21.8312 21.16C21.2042 19.8877 20.5658 18.6245 19.941 17.3521C20.5589 16.1139 21.1679 14.8712 21.7745 13.6284C21.2587 13.6534 20.743 13.6852 20.2295 13.7216C19.8455 14.6554 19.398 15.5641 19.0981 16.5297C18.8186 15.6187 18.4483 14.7417 18.1098 13.8534C17.61 13.8806 17.1101 13.9102 16.6103 13.9397C17.1374 15.103 17.6986 16.2502 18.2098 17.4203C17.6077 18.5563 17.0443 19.7082 16.4604 20.851C16.9579 20.8714 17.4555 20.8919 17.953 20.8987C18.3075 19.9945 18.7482 19.1243 19.0572 18.2019C19.3344 19.1925 19.8046 20.108 20.1909 21.0554C20.7384 21.0941 21.2837 21.1282 21.8312 21.16H21.8312ZM32.4164 10.6202H25.3096V11.5928H27.1272V13.1831H25.3096V14.0919H27.1272V15.6823H25.3096V16.5911H27.1272V18.1814H25.3096V19.0902H27.1272V20.6806H25.3096V21.5893H27.1272V23.1797H25.3096V24.2304H32.4164V10.6202Z" fill="#313945"/>
</g>
<rect x="0.5" y="0.5" width="46" height="34" rx="3.5" stroke="#313945"/>
<defs>
<clipPath id="clip0_0_968">
<rect width="20" height="20" fill="white" transform="translate(13.5 7.5)"/>
</clipPath>
</defs>
</svg>
