<svg width="47" height="35" viewBox="0 0 47 35" fill="none" xmlns="http://www.w3.org/2000/svg">
<path d="M32.0687 21.5406L30.1937 26.0406C30.1372 26.1782 30.0411 26.2959 29.9176 26.3787C29.7941 26.4615 29.6487 26.5057 29.5 26.5057C29.3513 26.5057 29.2059 26.4615 29.0824 26.3787C28.9589 26.2959 28.8628 26.1782 28.8063 26.0406L26.9313 21.5406C26.8931 21.4495 26.8732 21.3518 26.8728 21.253C26.8724 21.1543 26.8915 21.0564 26.9289 20.965C26.9664 20.8736 27.0214 20.7904 27.091 20.7203C27.1606 20.6502 27.2433 20.5944 27.3344 20.5563C27.4255 20.5181 27.5232 20.4982 27.622 20.4979C27.7208 20.4975 27.8186 20.5165 27.9101 20.554C28.0015 20.5914 28.0846 20.6465 28.1547 20.716C28.2248 20.7856 28.2806 20.8683 28.3187 20.9594L29.5 23.8L30.6813 20.9594C30.7194 20.8683 30.7752 20.7856 30.8453 20.716C30.9154 20.6465 30.9985 20.5914 31.0899 20.554C31.1814 20.5165 31.2792 20.4975 31.378 20.4979C31.4768 20.4982 31.5745 20.5181 31.6656 20.5563C31.7567 20.5944 31.8394 20.6502 31.909 20.7203C31.9786 20.7904 32.0336 20.8736 32.0711 20.965C32.1085 21.0564 32.1276 21.1543 32.1272 21.253C32.1268 21.3518 32.1069 21.4495 32.0687 21.5406ZM17.6875 22C17.9864 22.003 18.2736 22.1165 18.4937 22.3188C18.5664 22.3858 18.6518 22.4376 18.7448 22.4712C18.8378 22.5047 18.9366 22.5193 19.0353 22.5141C19.134 22.5088 19.2307 22.4839 19.3197 22.4407C19.4086 22.3975 19.488 22.3369 19.5531 22.2625C19.6873 22.1158 19.7578 21.9218 19.749 21.7231C19.7402 21.5245 19.6529 21.3374 19.5063 21.2031C19.0064 20.7542 18.3593 20.5041 17.6875 20.5C16.1406 20.5 14.875 21.85 14.875 23.5C14.875 25.15 16.1406 26.5 17.6875 26.5C18.3593 26.4959 19.0064 26.2458 19.5063 25.7969C19.6529 25.6626 19.7402 25.4756 19.749 25.2769C19.7578 25.0782 19.6873 24.8842 19.5531 24.7375C19.488 24.6631 19.4086 24.6026 19.3197 24.5594C19.2307 24.5162 19.134 24.4912 19.0353 24.486C18.9366 24.4807 18.8378 24.4953 18.7448 24.5288C18.6518 24.5624 18.5664 24.6142 18.4937 24.6813C18.2736 24.8835 17.9864 24.9971 17.6875 25C16.9656 25 16.375 24.325 16.375 23.5C16.375 22.675 16.9656 22 17.6875 22ZM23.6594 22.7313C23.3687 22.6563 22.8531 22.5156 22.75 22.3938V22.375C22.75 22.0656 22.975 21.9063 23.4062 21.9063C23.7413 21.9131 24.067 22.0173 24.3438 22.2063H24.3344C24.4704 22.3143 24.6388 22.3737 24.8125 22.375C25.0114 22.375 25.2022 22.296 25.3428 22.1553C25.4835 22.0147 25.5625 21.8239 25.5625 21.625C25.5643 21.5152 25.5407 21.4064 25.4936 21.3072C25.4464 21.208 25.377 21.1211 25.2906 21.0531C24.7497 20.6381 24.088 20.411 23.4062 20.4063C22.1406 20.4063 21.25 21.2125 21.25 22.375C21.25 23.5375 22.4688 23.9688 23.275 24.1844C23.5938 24.2688 23.9313 24.3531 24.1375 24.475C24.3438 24.5969 24.25 24.5688 24.25 24.625C24.25 24.6813 24.25 25.0938 23.4062 25.0938C23.0712 25.0869 22.7455 24.9827 22.4688 24.7938H22.4781C22.3421 24.6857 22.1737 24.6263 22 24.625C21.8011 24.625 21.6103 24.704 21.4697 24.8447C21.329 24.9853 21.25 25.1761 21.25 25.375C21.2482 25.4848 21.2718 25.5936 21.3189 25.6928C21.3661 25.792 21.4355 25.879 21.5219 25.9469C22.0628 26.3619 22.7245 26.589 23.4062 26.5938C24.8781 26.5938 25.75 25.8531 25.75 24.625C25.75 23.3969 24.4375 22.9375 23.6594 22.7313ZM15.25 17.5V9.25001C15.25 8.85219 15.408 8.47066 15.6893 8.18935C15.9706 7.90805 16.3522 7.75001 16.75 7.75001H25.75C25.9495 7.74889 26.1415 7.82635 26.2844 7.96564L31.5344 13.2156C31.6737 13.3585 31.7511 13.5505 31.75 13.75V17.5C31.75 17.6989 31.671 17.8897 31.5303 18.0303C31.3897 18.171 31.1989 18.25 31 18.25H16C15.8011 18.25 15.6103 18.171 15.4697 18.0303C15.329 17.8897 15.25 17.6989 15.25 17.5ZM25.75 13.75H29.875L25.75 9.62501V13.75Z" fill="#313945"/>
<rect x="0.5" y="0.5" width="46" height="34" rx="3.5" stroke="#313945"/>
</svg>
