<svg width="33" height="35" viewBox="0 0 33 35" fill="none" xmlns="http://www.w3.org/2000/svg">
<rect width="33" height="35" rx="4" fill="#313945"/>
<path d="M14.5 16.5002H11.601L11.602 16.4912C11.7326 15.8519 11.9881 15.2446 12.354 14.7042C12.8985 13.902 13.6621 13.2734 14.554 12.8932C14.856 12.7652 15.171 12.6672 15.492 12.6022C16.1579 12.4672 16.8441 12.4672 17.51 12.6022C18.467 12.7983 19.3451 13.2716 20.035 13.9632L21.451 12.5512C20.8128 11.9129 20.0578 11.4033 19.227 11.0502C18.8033 10.8709 18.3628 10.7342 17.912 10.6422C16.9818 10.4532 16.0232 10.4532 15.093 10.6422C14.6419 10.7346 14.201 10.8716 13.777 11.0512C12.5275 11.5813 11.4579 12.4613 10.697 13.5852C10.1849 14.3431 9.82676 15.1942 9.643 16.0902C9.615 16.2252 9.6 16.3632 9.58 16.5002H6.5L10.5 20.5002L14.5 16.5002ZM18.5 18.5002H21.399L21.398 18.5082C21.1367 19.79 20.3812 20.9173 19.295 21.6462C18.7548 22.0124 18.1475 22.268 17.508 22.3982C16.8424 22.5332 16.1566 22.5332 15.491 22.3982C14.8516 22.2677 14.2443 22.0121 13.704 21.6462C13.4386 21.4667 13.1908 21.2625 12.964 21.0362L11.55 22.4502C12.1885 23.0884 12.9439 23.5977 13.775 23.9502C14.199 24.1302 14.642 24.2672 15.09 24.3582C16.0198 24.5473 16.9782 24.5473 17.908 24.3582C19.7005 23.9862 21.2773 22.9296 22.303 21.4132C22.8146 20.656 23.1724 19.8055 23.356 18.9102C23.383 18.7752 23.399 18.6372 23.419 18.5002H26.5L22.5 14.5002L18.5 18.5002Z" fill="white"/>
</svg>
