<svg width="17" height="16" viewBox="0 0 17 16" fill="none" xmlns="http://www.w3.org/2000/svg">
<path d="M17 3.18502V7.33317C17 7.47069 16.936 7.60258 16.8222 7.69982C16.7084 7.79706 16.554 7.85169 16.393 7.85169C16.232 7.85169 16.0776 7.79706 15.9637 7.69982C15.8499 7.60258 15.786 7.47069 15.786 7.33317V4.43595L9.54123 9.77669C9.42614 9.87406 9.27071 9.92868 9.10873 9.92868C8.94675 9.92868 8.79131 9.87406 8.67623 9.77669L6.07362 7.54706L1.04294 11.8508C0.926416 11.9459 0.771624 11.9993 0.610436 11.9998C0.449546 11.998 0.295284 11.9448 0.177933 11.8508C0.0639457 11.7525 0 11.6197 0 11.4813C0 11.343 0.0639457 11.2102 0.177933 11.1119L5.64112 6.44521C5.75621 6.34784 5.91164 6.29322 6.07362 6.29322C6.23561 6.29322 6.39104 6.34784 6.50613 6.44521L9.10873 8.67484L14.9285 3.70354H11.5368C11.3758 3.70354 11.2214 3.64891 11.1076 3.55167C10.9937 3.45443 10.9298 3.32254 10.9298 3.18502C10.9298 3.0475 10.9937 2.91562 11.1076 2.81837C11.2214 2.72113 11.3758 2.6665 11.5368 2.6665H16.393C16.554 2.6665 16.7084 2.72113 16.8222 2.81837C16.936 2.91562 17 3.0475 17 3.18502Z" fill="#49E45F"/>
</svg>
